<svg aria-hidden="true" style="width:0;height:0;position:absolute;overflow:hidden" xmlns="http://www.w3.org/2000/svg"><defs><symbol id="moon" viewBox="0 0 32 32"><path d="M27.884 26.67a.943.943 0 0 0-.89-.653c-3.765-.021-8.43-3.438-9.756-5.427l1.141-.761a.943.943 0 0 0-.152-1.65 3.424 3.424 0 0 1-.64-.399c.79-.594 1.317-1.623 1.391-2.836a.995.995 0 0 0-.311-1.945h-2.893c.21-4.819 3.439-8.532 5.043-9.609a.936.936 0 0 0 .375-1.059.94.94 0 0 0-.905-.665C14.255 1.689 9.3 4.293 6.691 8.811A14.573 14.573 0 0 0 5.3 20.032c1.029 3.618 3.384 6.57 6.632 8.313 2.424 1.301 5.041 1.989 7.566 1.989h.003c2.922 0 5.703-.903 8.043-2.613a.94.94 0 0 0 .34-1.05zM9.333 13a1 1 0 1 0 0 2h.36c.136 1.891 1.385 3.333 2.973 3.333.812 0 1.535-.381 2.07-1.001a6.79 6.79 0 0 0 1.422 1.711l-.652.435a.936.936 0 0 0-.383 1.045c.167.581.628 1.3 1.294 2.058l-.613.101c-1.258.155-2.775-.402-3.764-1.391l-.667-.667a.999.999 0 1 0-1.414 1.414l.667.667c1.253 1.253 3.049 1.999 4.763 1.999.236 0 .471-.014.702-.043l2.071-.343c.022-.003.042-.012.063-.017 1.638 1.325 3.755 2.554 5.973 3.179-3.486 1.514-7.581 1.239-11.377-.797-2.793-1.499-4.821-4.043-5.71-7.167a12.69 12.69 0 0 1 1.211-9.764c1.887-3.268 5.197-5.38 9.379-6.008-1.329 1.551-3.645 4.871-3.816 9.255H9.331zm4.311 2c-.105.781-.562 1.333-.977 1.333s-.873-.552-.977-1.333h1.955zm2.64 1.245a5.586 5.586 0 0 1-.483-1.193L15.799 15h1.178c-.081.605-.373 1.065-.693 1.245z"/></symbol><symbol id="sun" viewBox="0 0 32 32"><path fill="#ef950b" style="fill:var(--color1,#ef950b)" opacity=".734" d="M15.833.25a1.33 1.33 0 0 0-1.167 1.333V4.25c-.005.479.245.927.661 1.172.417.24.927.24 1.344 0a1.34 1.34 0 0 0 .661-1.172V1.583c.005-.385-.161-.75-.448-1.005S16.212.203 15.832.25zM5.333 4.5c-.5.089-.901.453-1.042.938-.141.49.005 1.01.375 1.354l1.875 1.875c.323.396.839.578 1.339.464a1.341 1.341 0 0 0 1-1 1.34 1.34 0 0 0-.464-1.339L6.541 4.917a1.335 1.335 0 0 0-.958-.417h-.25zm20.917 0a1.345 1.345 0 0 0-.792.417l-1.875 1.875a1.341 1.341 0 0 0-.464 1.339c.115.495.505.885 1 1a1.34 1.34 0 0 0 1.339-.464l1.875-1.875c.396-.38.516-.969.302-1.474a1.337 1.337 0 0 0-1.26-.818h-.125zM16 6.917c-5.125 0-9.333 4.208-9.333 9.333s4.208 9.333 9.333 9.333 9.333-4.208 9.333-9.333S21.125 6.917 16 6.917zm0 2.666c3.672 0 6.667 2.995 6.667 6.667S19.672 22.917 16 22.917c-3.672 0-6.667-2.995-6.667-6.667S12.328 9.583 16 9.583zM1.083 14.917c-.734.068-1.276.724-1.208 1.458s.724 1.276 1.458 1.208H4c.479.005.927-.245 1.172-.661.24-.417.24-.927 0-1.344A1.34 1.34 0 0 0 4 14.917H1.083zm26.667 0c-.734.068-1.276.724-1.208 1.458s.724 1.276 1.458 1.208h2.667c.479.005.927-.245 1.172-.661.24-.417.24-.927 0-1.344a1.34 1.34 0 0 0-1.172-.661H27.75zM7.292 23.458a1.317 1.317 0 0 0-.75.417l-1.875 1.833a1.342 1.342 0 0 0 1.875 1.917l1.875-1.875a1.327 1.327 0 0 0 .286-1.563 1.327 1.327 0 0 0-1.411-.729zm16.958 0c-.5.089-.901.453-1.042.938-.141.49.005 1.01.375 1.354l1.875 1.875a1.34 1.34 0 0 0 1.875-1.917l-1.875-1.833a1.339 1.339 0 0 0-1.083-.417h-.125zm-8.417 3.459a1.33 1.33 0 0 0-1.167 1.333v2.667c-.005.479.245.927.661 1.172.417.24.927.24 1.344 0a1.34 1.34 0 0 0 .661-1.172V28.25c.005-.385-.161-.75-.448-1.005s-.672-.375-1.052-.328z"/></symbol></defs></svg>