<svg aria-hidden="true" style="position: absolute; width: 0; height: 0; overflow: hidden;" version="1.1" xmlns="http://www.w3.org/2000/svg" xmlns:xlink="http://www.w3.org/1999/xlink">
<defs>
<symbol id="moon" viewBox="0 0 32 32">
<path d="M27.884 26.67c-0.125-0.387-0.483-0.649-0.89-0.653-3.765-0.021-8.43-3.438-9.756-5.427l1.141-0.761c0.286-0.191 0.445-0.525 0.413-0.87-0.031-0.343-0.247-0.642-0.565-0.78-0.027-0.012-0.29-0.131-0.64-0.399 0.79-0.594 1.317-1.623 1.391-2.836 0.399-0.131 0.689-0.502 0.689-0.945 0-0.552-0.447-1-1-1h-2.893c0.21-4.819 3.439-8.532 5.043-9.609 0.347-0.233 0.498-0.658 0.375-1.059-0.123-0.398-0.485-0.665-0.905-0.665-6.032 0.023-10.987 2.627-13.596 7.145-1.953 3.381-2.459 7.471-1.391 11.221 1.029 3.618 3.384 6.57 6.632 8.313 2.424 1.301 5.041 1.989 7.566 1.989 0.001 0 0.002 0 0.003 0 2.922 0 5.703-0.903 8.043-2.613 0.329-0.241 0.465-0.663 0.34-1.050zM9.333 13c-0.553 0-1 0.448-1 1s0.447 1 1 1h0.36c0.136 1.891 1.385 3.333 2.973 3.333 0.812 0 1.535-0.381 2.070-1.001 0.437 0.743 0.949 1.305 1.422 1.711l-0.652 0.435c-0.344 0.228-0.498 0.648-0.383 1.045 0.167 0.581 0.628 1.3 1.294 2.058l-0.613 0.101c-1.258 0.155-2.775-0.402-3.764-1.391l-0.667-0.667c-0.391-0.391-1.023-0.391-1.414 0s-0.391 1.023 0 1.414l0.667 0.667c1.253 1.253 3.049 1.999 4.763 1.999 0.236 0 0.471-0.014 0.702-0.043l2.071-0.343c0.022-0.003 0.042-0.012 0.063-0.017 1.638 1.325 3.755 2.554 5.973 3.179-3.486 1.514-7.581 1.239-11.377-0.797-2.793-1.499-4.821-4.043-5.71-7.167-0.929-3.263-0.487-6.821 1.211-9.764 1.887-3.268 5.197-5.38 9.379-6.008-1.329 1.551-3.645 4.871-3.816 9.255h-4.554zM13.644 15c-0.105 0.781-0.562 1.333-0.977 1.333s-0.873-0.552-0.977-1.333h1.955zM16.284 16.245c-0.188-0.343-0.356-0.737-0.483-1.193l-0.002-0.052h1.178c-0.081 0.605-0.373 1.065-0.693 1.245z"></path>
</symbol>
<symbol id="sun" viewBox="0 0 32 32">
<path fill="#ef950b" style="fill: var(--color1, #ef950b)" opacity="0.7337731798495359" d="M15.833 0.25c-0.672 0.083-1.172 0.656-1.167 1.333v2.667c-0.005 0.479 0.245 0.927 0.661 1.172 0.417 0.24 0.927 0.24 1.344 0 0.417-0.245 0.667-0.693 0.661-1.172v-2.667c0.005-0.385-0.161-0.75-0.448-1.005s-0.672-0.375-1.052-0.328zM5.333 4.5c-0.5 0.089-0.901 0.453-1.042 0.938-0.141 0.49 0.005 1.010 0.375 1.354l1.875 1.875c0.323 0.396 0.839 0.578 1.339 0.464 0.495-0.115 0.885-0.505 1-1 0.115-0.5-0.068-1.016-0.464-1.339l-1.875-1.875c-0.25-0.266-0.594-0.411-0.958-0.417-0.042 0-0.083 0-0.125 0s-0.083 0-0.125 0zM26.25 4.5c-0.302 0.042-0.583 0.193-0.792 0.417l-1.875 1.875c-0.396 0.323-0.578 0.839-0.464 1.339 0.115 0.495 0.505 0.885 1 1 0.5 0.115 1.016-0.068 1.339-0.464l1.875-1.875c0.396-0.38 0.516-0.969 0.302-1.474-0.208-0.505-0.714-0.828-1.26-0.818-0.042 0-0.083 0-0.125 0zM16 6.917c-5.125 0-9.333 4.208-9.333 9.333s4.208 9.333 9.333 9.333c5.125 0 9.333-4.208 9.333-9.333s-4.208-9.333-9.333-9.333zM16 9.583c3.672 0 6.667 2.995 6.667 6.667s-2.995 6.667-6.667 6.667c-3.672 0-6.667-2.995-6.667-6.667s2.995-6.667 6.667-6.667zM1.083 14.917c-0.734 0.068-1.276 0.724-1.208 1.458s0.724 1.276 1.458 1.208h2.667c0.479 0.005 0.927-0.245 1.172-0.661 0.24-0.417 0.24-0.927 0-1.344-0.245-0.417-0.693-0.667-1.172-0.661h-2.667c-0.042 0-0.083 0-0.125 0s-0.083 0-0.125 0zM27.75 14.917c-0.734 0.068-1.276 0.724-1.208 1.458s0.724 1.276 1.458 1.208h2.667c0.479 0.005 0.927-0.245 1.172-0.661 0.24-0.417 0.24-0.927 0-1.344-0.245-0.417-0.693-0.667-1.172-0.661h-2.667c-0.042 0-0.083 0-0.125 0s-0.083 0-0.125 0zM7.292 23.458c-0.292 0.052-0.552 0.198-0.75 0.417l-1.875 1.833c-0.531 0.516-0.536 1.365-0.021 1.896s1.365 0.536 1.896 0.021l1.875-1.875c0.432-0.401 0.547-1.036 0.286-1.563-0.255-0.531-0.833-0.823-1.411-0.729zM24.25 23.458c-0.5 0.089-0.901 0.453-1.042 0.938-0.141 0.49 0.005 1.010 0.375 1.354l1.875 1.875c0.531 0.516 1.38 0.51 1.896-0.021s0.51-1.38-0.021-1.896l-1.875-1.833c-0.276-0.297-0.677-0.448-1.083-0.417-0.042 0-0.083 0-0.125 0zM15.833 26.917c-0.672 0.083-1.172 0.656-1.167 1.333v2.667c-0.005 0.479 0.245 0.927 0.661 1.172 0.417 0.24 0.927 0.24 1.344 0 0.417-0.245 0.667-0.693 0.661-1.172v-2.667c0.005-0.385-0.161-0.75-0.448-1.005s-0.672-0.375-1.052-0.328z"></path>
</symbol>
</defs>
</svg>
